%TF.GenerationSoftware,KiCad,Pcbnew,8.0.7*%
%TF.CreationDate,2025-01-10T12:44:58+00:00*%
%TF.ProjectId,AstroDroid-v1,41737472-6f44-4726-9f69-642d76312e6b,rev?*%
%TF.SameCoordinates,Original*%
%TF.FileFunction,Copper,L2,Inr*%
%TF.FilePolarity,Positive*%
%FSLAX46Y46*%
G04 Gerber Fmt 4.6, Leading zero omitted, Abs format (unit mm)*
G04 Created by KiCad (PCBNEW 8.0.7) date 2025-01-10 12:44:58*
%MOMM*%
%LPD*%
G01*
G04 APERTURE LIST*
G04 Aperture macros list*
%AMRoundRect*
0 Rectangle with rounded corners*
0 $1 Rounding radius*
0 $2 $3 $4 $5 $6 $7 $8 $9 X,Y pos of 4 corners*
0 Add a 4 corners polygon primitive as box body*
4,1,4,$2,$3,$4,$5,$6,$7,$8,$9,$2,$3,0*
0 Add four circle primitives for the rounded corners*
1,1,$1+$1,$2,$3*
1,1,$1+$1,$4,$5*
1,1,$1+$1,$6,$7*
1,1,$1+$1,$8,$9*
0 Add four rect primitives between the rounded corners*
20,1,$1+$1,$2,$3,$4,$5,0*
20,1,$1+$1,$4,$5,$6,$7,0*
20,1,$1+$1,$6,$7,$8,$9,0*
20,1,$1+$1,$8,$9,$2,$3,0*%
G04 Aperture macros list end*
%TA.AperFunction,ComponentPad*%
%ADD10C,2.000000*%
%TD*%
%TA.AperFunction,ComponentPad*%
%ADD11R,2.413000X2.413000*%
%TD*%
%TA.AperFunction,ComponentPad*%
%ADD12C,2.413000*%
%TD*%
%TA.AperFunction,ComponentPad*%
%ADD13R,1.700000X1.700000*%
%TD*%
%TA.AperFunction,ComponentPad*%
%ADD14O,1.700000X1.700000*%
%TD*%
%TA.AperFunction,ComponentPad*%
%ADD15RoundRect,0.400050X-0.899950X-0.400050X0.899950X-0.400050X0.899950X0.400050X-0.899950X0.400050X0*%
%TD*%
%TA.AperFunction,ComponentPad*%
%ADD16RoundRect,0.393700X-0.393700X-0.906300X0.393700X-0.906300X0.393700X0.906300X-0.393700X0.906300X0*%
%TD*%
%TA.AperFunction,ComponentPad*%
%ADD17RoundRect,0.400000X-0.400000X-0.900000X0.400000X-0.900000X0.400000X0.900000X-0.400000X0.900000X0*%
%TD*%
%TA.AperFunction,ComponentPad*%
%ADD18RoundRect,0.400000X-0.900000X-0.400000X0.900000X-0.400000X0.900000X0.400000X-0.900000X0.400000X0*%
%TD*%
%TA.AperFunction,ComponentPad*%
%ADD19O,1.600000X1.600000*%
%TD*%
%TA.AperFunction,ComponentPad*%
%ADD20C,1.600000*%
%TD*%
%TA.AperFunction,ComponentPad*%
%ADD21R,2.000000X2.000000*%
%TD*%
%TA.AperFunction,ComponentPad*%
%ADD22C,1.879600*%
%TD*%
%TA.AperFunction,ViaPad*%
%ADD23C,0.600000*%
%TD*%
%TA.AperFunction,Conductor*%
%ADD24C,0.200000*%
%TD*%
G04 APERTURE END LIST*
D10*
%TO.N,GND*%
%TO.C,SW1*%
X83312000Y-94234000D03*
X76812000Y-94234000D03*
%TO.N,/sw*%
X83312000Y-89734000D03*
X76812000Y-89734000D03*
%TD*%
D11*
%TO.N,Net-(J2-Mtr_PwrA)*%
%TO.C,J2*%
X108458000Y-71628000D03*
D12*
%TO.N,Net-(J2-MtrPwrB)*%
X108458000Y-66629280D03*
%TO.N,GND*%
X108458000Y-61628020D03*
%TD*%
D13*
%TO.N,Net-(J2-Mtr_PwrA)*%
%TO.C,Motor1*%
X106934000Y-77216000D03*
D14*
%TO.N,Net-(J2-MtrPwrB)*%
X106934000Y-79756000D03*
%TO.N,GND*%
X106934000Y-82296000D03*
%TO.N,+3V3*%
X106934000Y-84836000D03*
%TO.N,/EncA*%
X106934000Y-87376000D03*
%TO.N,/EncB*%
X106934000Y-89916000D03*
%TD*%
D13*
%TO.N,Net-(J3-TX)*%
%TO.C,J3*%
X82804000Y-68326000D03*
D14*
%TO.N,Net-(J3-RX)*%
X82804000Y-70866000D03*
%TO.N,GND*%
X82804000Y-73406000D03*
%TD*%
D13*
%TO.N,Net-(WS2812B-2-Out)*%
%TO.C,WS2812B-2*%
X78994000Y-84328000D03*
D14*
%TO.N,GND*%
X76454000Y-84328000D03*
%TO.N,Net-(WS2812B-1-Out)*%
X73914000Y-84328000D03*
%TO.N,+5V*%
X71374000Y-84328000D03*
%TD*%
D13*
%TO.N,Net-(WS2812B-1-Out)*%
%TO.C,WS2812B-1*%
X78994000Y-80518000D03*
D14*
%TO.N,GND*%
X76454000Y-80518000D03*
%TO.N,Net-(WS2812B-1-In)*%
X73914000Y-80518000D03*
%TO.N,+5V*%
X71374000Y-80518000D03*
%TD*%
D15*
%TO.N,+5V*%
%TO.C,RZ1*%
X85951000Y-55297000D03*
%TO.N,GND*%
X85951000Y-57837000D03*
%TO.N,+3V3*%
X85951000Y-60377000D03*
%TO.N,unconnected-(RZ1-GP29-Pad29)*%
X85951000Y-62917000D03*
%TO.N,unconnected-(RZ1-GP28-Pad28)*%
X85951000Y-65457000D03*
%TO.N,/Trigger-1*%
X85951000Y-67997000D03*
%TO.N,/Trigger-2*%
X85951000Y-70537000D03*
%TO.N,/Trigger-3*%
X85951000Y-73077000D03*
%TO.N,/sw*%
X85951000Y-75617000D03*
D16*
%TO.N,/WS2812B*%
X89091000Y-76427000D03*
%TO.N,/Echo-1*%
X91631000Y-76427000D03*
%TO.N,/Echo-2*%
X94171000Y-76427000D03*
%TO.N,/Echo-3*%
X96711000Y-76427000D03*
D17*
%TO.N,/SCL*%
X99251000Y-76427000D03*
D15*
%TO.N,/SDA*%
X102391000Y-75617000D03*
%TO.N,/Headlight*%
X102391000Y-73077000D03*
%TO.N,/Taillight*%
X102391000Y-70537000D03*
%TO.N,/EncA*%
X102391000Y-67997000D03*
D18*
%TO.N,/EncB*%
X102391000Y-65457000D03*
%TO.N,/MtrA*%
X102391000Y-62917000D03*
%TO.N,/MtrB*%
X102391000Y-60377000D03*
%TO.N,Net-(J3-RX)*%
X102391000Y-57837000D03*
%TO.N,Net-(J3-TX)*%
X102391000Y-55297000D03*
%TD*%
D19*
%TO.N,Net-(WS2812B-1-In)*%
%TO.C,R1*%
X87884000Y-84836000D03*
D20*
%TO.N,Net-(B1-HV_TXO_1)*%
X98044000Y-84836000D03*
%TD*%
D14*
%TO.N,/Taillight*%
%TO.C,L298N1*%
X103124000Y-89916000D03*
%TO.N,/Headlight*%
X103124000Y-87376000D03*
%TO.N,/MtrB*%
X103124000Y-84836000D03*
D13*
%TO.N,/MtrA*%
X103124000Y-82296000D03*
%TD*%
%TO.N,+5V*%
%TO.C,HCSR04-3*%
X78994000Y-68326000D03*
D14*
%TO.N,/Trigger-3*%
X78994000Y-70866000D03*
%TO.N,/Echo-HV-3*%
X78994000Y-73406000D03*
%TO.N,GND*%
X78994000Y-75946000D03*
%TD*%
D13*
%TO.N,+5V*%
%TO.C,HCSR04-2*%
X75184000Y-68336000D03*
D14*
%TO.N,/Trigger-2*%
X75184000Y-70876000D03*
%TO.N,/Echo-HV-2*%
X75184000Y-73416000D03*
%TO.N,GND*%
X75184000Y-75956000D03*
%TD*%
D13*
%TO.N,+5V*%
%TO.C,HCSR04-1*%
X71374000Y-68326000D03*
D14*
%TO.N,/Trigger-1*%
X71374000Y-70866000D03*
%TO.N,/Echo-HV-1*%
X71374000Y-73406000D03*
%TO.N,GND*%
X71374000Y-75946000D03*
%TD*%
D10*
%TO.N,GND*%
%TO.C,C1*%
X78994000Y-61722000D03*
D21*
%TO.N,+5V*%
X78994000Y-56722000D03*
%TD*%
D22*
%TO.N,GND*%
%TO.C,B1*%
X94234000Y-89916000D03*
X94234000Y-79756000D03*
%TO.N,+5V*%
X91694000Y-79756000D03*
%TO.N,Net-(B1-HV_TXO_1)*%
X86614000Y-79756000D03*
%TO.N,/Echo-HV-1*%
X89154000Y-79756000D03*
%TO.N,/Echo-HV-2*%
X96774000Y-79756000D03*
%TO.N,/Echo-HV-3*%
X99314000Y-79756000D03*
%TO.N,+3V3*%
X91694000Y-89916000D03*
%TO.N,/WS2812B*%
X86614000Y-89916000D03*
%TO.N,/Echo-1*%
X89154000Y-89916000D03*
%TO.N,/Echo-2*%
X96774000Y-89916000D03*
%TO.N,/Echo-3*%
X99314000Y-89916000D03*
%TD*%
D13*
%TO.N,+3V3*%
%TO.C,ADT1*%
X91186000Y-93726000D03*
D14*
%TO.N,GND*%
X93726000Y-93726000D03*
%TO.N,/SCL*%
X96266000Y-93726000D03*
%TO.N,/SDA*%
X98806000Y-93726000D03*
%TD*%
D23*
%TO.N,/Echo-HV-3*%
X82550000Y-76454000D03*
%TD*%
D24*
%TO.N,/Echo-HV-3*%
X78994000Y-73406000D02*
X82042000Y-76454000D01*
X82042000Y-76454000D02*
X82550000Y-76454000D01*
%TO.N,/Trigger-2*%
X86551000Y-70537000D02*
X85730000Y-69716000D01*
X85730000Y-69716000D02*
X76344000Y-69716000D01*
X76344000Y-69716000D02*
X75184000Y-70876000D01*
%TO.N,/Trigger-3*%
X86551000Y-73077000D02*
X85630000Y-72156000D01*
X85630000Y-72156000D02*
X80284000Y-72156000D01*
X80284000Y-72156000D02*
X78994000Y-70866000D01*
%TO.N,Net-(WS2812B-1-In)*%
X87884000Y-84836000D02*
X87630000Y-84836000D01*
X87630000Y-84836000D02*
X85872000Y-83078000D01*
X85872000Y-83078000D02*
X76474000Y-83078000D01*
X76474000Y-83078000D02*
X73914000Y-80518000D01*
%TO.N,/Echo-HV-2*%
X96774000Y-79756000D02*
X95134200Y-78116200D01*
X73914000Y-74686000D02*
X75184000Y-73416000D01*
X95134200Y-78116200D02*
X75576433Y-78116200D01*
X75576433Y-78116200D02*
X73914000Y-76453767D01*
X73914000Y-76453767D02*
X73914000Y-74686000D01*
%TO.N,/Echo-HV-1*%
X89154000Y-79756000D02*
X87914200Y-78516200D01*
X70134200Y-78516200D02*
X70104000Y-78486000D01*
X87914200Y-78516200D02*
X70134200Y-78516200D01*
X70104000Y-78486000D02*
X70104000Y-74676000D01*
X70104000Y-74676000D02*
X71374000Y-73406000D01*
%TO.N,Net-(B1-HV_TXO_1)*%
X86614000Y-79756000D02*
X91694000Y-84836000D01*
X91694000Y-84836000D02*
X98044000Y-84836000D01*
%TO.N,/SCL*%
X99251000Y-75827000D02*
X100553800Y-77129800D01*
X100553800Y-77129800D02*
X100553800Y-90962200D01*
X100553800Y-90962200D02*
X98940000Y-92576000D01*
X98940000Y-92576000D02*
X97416000Y-92576000D01*
X97416000Y-92576000D02*
X96266000Y-93726000D01*
%TO.N,/SDA*%
X101791000Y-75617000D02*
X101791000Y-90741000D01*
X101791000Y-90741000D02*
X98806000Y-93726000D01*
%TO.N,/Taillight*%
X101791000Y-70537000D02*
X102141022Y-70537000D01*
X102141022Y-70537000D02*
X104902000Y-73297978D01*
X104902000Y-73297978D02*
X104902000Y-88138000D01*
X104902000Y-88138000D02*
X103124000Y-89916000D01*
%TO.N,/Headlight*%
X103124000Y-87376000D02*
X104274000Y-86226000D01*
X104274000Y-86226000D02*
X104274000Y-75209978D01*
X104274000Y-75209978D02*
X102141022Y-73077000D01*
X102141022Y-73077000D02*
X101791000Y-73077000D01*
%TO.N,/EncB*%
X106934000Y-89916000D02*
X109112000Y-87738000D01*
X109112000Y-87738000D02*
X109112000Y-75272314D01*
X109112000Y-75272314D02*
X105302000Y-71462314D01*
X105302000Y-71462314D02*
X105302000Y-67964000D01*
X105302000Y-67964000D02*
X102795000Y-65457000D01*
X102795000Y-65457000D02*
X101791000Y-65457000D01*
%TO.N,/EncA*%
X104902000Y-71628000D02*
X104902000Y-69850000D01*
X106934000Y-87376000D02*
X108712000Y-85598000D01*
X108712000Y-75438000D02*
X104902000Y-71628000D01*
X108712000Y-85598000D02*
X108712000Y-75438000D01*
X104902000Y-69850000D02*
X103049000Y-67997000D01*
X103049000Y-67997000D02*
X101791000Y-67997000D01*
%TD*%
M02*
