M48
; DRILL file {KiCad 8.0.7} date 2025-01-10T12:45:12+0000
; FORMAT={-:-/ absolute / metric / decimal}
; #@! TF.CreationDate,2025-01-10T12:45:12+00:00
; #@! TF.GenerationSoftware,Kicad,Pcbnew,8.0.7
; #@! TF.FileFunction,MixedPlating,1,4
FMAT,2
METRIC
; #@! TA.AperFunction,Plated,PTH,ViaDrill
T1C0.300
; #@! TA.AperFunction,Plated,PTH,ComponentDrill
T2C0.800
; #@! TA.AperFunction,Plated,PTH,ComponentDrill
T3C1.000
; #@! TA.AperFunction,Plated,PTH,ComponentDrill
T4C1.016
; #@! TA.AperFunction,Plated,PTH,ComponentDrill
T5C1.100
; #@! TA.AperFunction,Plated,PTH,ComponentDrill
T6C1.298
%
G90
G05
T1
X82.55Y-76.454
T2
X86.551Y-55.297
X86.551Y-57.837
X86.551Y-60.377
X86.551Y-62.917
X86.551Y-65.457
X86.551Y-67.997
X86.551Y-70.537
X86.551Y-73.077
X86.551Y-75.617
X87.884Y-84.836
X89.091Y-75.827
X91.631Y-75.827
X94.171Y-75.827
X96.711Y-75.827
X98.044Y-84.836
X99.251Y-75.827
X101.791Y-55.297
X101.791Y-57.837
X101.791Y-60.377
X101.791Y-62.917
X101.791Y-65.457
X101.791Y-67.997
X101.791Y-70.537
X101.791Y-73.077
X101.791Y-75.617
T3
X71.374Y-68.326
X71.374Y-70.866
X71.374Y-73.406
X71.374Y-75.946
X71.374Y-80.518
X71.374Y-84.328
X73.914Y-80.518
X73.914Y-84.328
X75.184Y-68.336
X75.184Y-70.876
X75.184Y-73.416
X75.184Y-75.956
X76.454Y-80.518
X76.454Y-84.328
X78.994Y-56.722
X78.994Y-61.722
X78.994Y-68.326
X78.994Y-70.866
X78.994Y-73.406
X78.994Y-75.946
X78.994Y-80.518
X78.994Y-84.328
X82.804Y-68.326
X82.804Y-70.866
X82.804Y-73.406
X91.186Y-93.726
X93.726Y-93.726
X96.266Y-93.726
X98.806Y-93.726
X103.124Y-82.296
X103.124Y-84.836
X103.124Y-87.376
X103.124Y-89.916
X106.934Y-77.216
X106.934Y-79.756
X106.934Y-82.296
X106.934Y-84.836
X106.934Y-87.376
X106.934Y-89.916
T4
X86.614Y-79.756
X86.614Y-89.916
X89.154Y-79.756
X89.154Y-89.916
X91.694Y-79.756
X91.694Y-89.916
X94.234Y-79.756
X94.234Y-89.916
X96.774Y-79.756
X96.774Y-89.916
X99.314Y-79.756
X99.314Y-89.916
T5
X76.812Y-89.734
X76.812Y-94.234
X83.312Y-89.734
X83.312Y-94.234
T6
X108.458Y-61.628
X108.458Y-66.629
X108.458Y-71.628
M30
