%TF.GenerationSoftware,KiCad,Pcbnew,8.0.7*%
%TF.CreationDate,2025-01-10T12:44:58+00:00*%
%TF.ProjectId,AstroDroid-v1,41737472-6f44-4726-9f69-642d76312e6b,rev?*%
%TF.SameCoordinates,Original*%
%TF.FileFunction,Soldermask,Top*%
%TF.FilePolarity,Negative*%
%FSLAX46Y46*%
G04 Gerber Fmt 4.6, Leading zero omitted, Abs format (unit mm)*
G04 Created by KiCad (PCBNEW 8.0.7) date 2025-01-10 12:44:58*
%MOMM*%
%LPD*%
G01*
G04 APERTURE LIST*
G04 Aperture macros list*
%AMRoundRect*
0 Rectangle with rounded corners*
0 $1 Rounding radius*
0 $2 $3 $4 $5 $6 $7 $8 $9 X,Y pos of 4 corners*
0 Add a 4 corners polygon primitive as box body*
4,1,4,$2,$3,$4,$5,$6,$7,$8,$9,$2,$3,0*
0 Add four circle primitives for the rounded corners*
1,1,$1+$1,$2,$3*
1,1,$1+$1,$4,$5*
1,1,$1+$1,$6,$7*
1,1,$1+$1,$8,$9*
0 Add four rect primitives between the rounded corners*
20,1,$1+$1,$2,$3,$4,$5,0*
20,1,$1+$1,$4,$5,$6,$7,0*
20,1,$1+$1,$6,$7,$8,$9,0*
20,1,$1+$1,$8,$9,$2,$3,0*%
G04 Aperture macros list end*
%ADD10C,2.000000*%
%ADD11RoundRect,0.101600X1.206500X-1.206500X1.206500X1.206500X-1.206500X1.206500X-1.206500X-1.206500X0*%
%ADD12C,2.616200*%
%ADD13R,1.700000X1.700000*%
%ADD14O,1.700000X1.700000*%
%ADD15RoundRect,0.400050X-0.899950X-0.400050X0.899950X-0.400050X0.899950X0.400050X-0.899950X0.400050X0*%
%ADD16RoundRect,0.393700X-0.393700X-0.906300X0.393700X-0.906300X0.393700X0.906300X-0.393700X0.906300X0*%
%ADD17RoundRect,0.400000X-0.400000X-0.900000X0.400000X-0.900000X0.400000X0.900000X-0.400000X0.900000X0*%
%ADD18RoundRect,0.400000X-0.900000X-0.400000X0.900000X-0.400000X0.900000X0.400000X-0.900000X0.400000X0*%
%ADD19O,1.600000X1.600000*%
%ADD20C,1.600000*%
%ADD21R,2.000000X2.000000*%
%ADD22C,2.082800*%
G04 APERTURE END LIST*
D10*
%TO.C,SW1*%
X83312000Y-94234000D03*
X76812000Y-94234000D03*
X83312000Y-89734000D03*
X76812000Y-89734000D03*
%TD*%
D11*
%TO.C,J2*%
X108458000Y-71628000D03*
D12*
X108458000Y-66629280D03*
X108458000Y-61628020D03*
%TD*%
D13*
%TO.C,Motor1*%
X106934000Y-77216000D03*
D14*
X106934000Y-79756000D03*
X106934000Y-82296000D03*
X106934000Y-84836000D03*
X106934000Y-87376000D03*
X106934000Y-89916000D03*
%TD*%
D13*
%TO.C,J3*%
X82804000Y-68326000D03*
D14*
X82804000Y-70866000D03*
X82804000Y-73406000D03*
%TD*%
D13*
%TO.C,WS2812B-2*%
X78994000Y-84328000D03*
D14*
X76454000Y-84328000D03*
X73914000Y-84328000D03*
X71374000Y-84328000D03*
%TD*%
D13*
%TO.C,WS2812B-1*%
X78994000Y-80518000D03*
D14*
X76454000Y-80518000D03*
X73914000Y-80518000D03*
X71374000Y-80518000D03*
%TD*%
D15*
%TO.C,RZ1*%
X85951000Y-55297000D03*
X85951000Y-57837000D03*
X85951000Y-60377000D03*
X85951000Y-62917000D03*
X85951000Y-65457000D03*
X85951000Y-67997000D03*
X85951000Y-70537000D03*
X85951000Y-73077000D03*
X85951000Y-75617000D03*
D16*
X89091000Y-76427000D03*
X91631000Y-76427000D03*
X94171000Y-76427000D03*
X96711000Y-76427000D03*
D17*
X99251000Y-76427000D03*
D15*
X102391000Y-75617000D03*
X102391000Y-73077000D03*
X102391000Y-70537000D03*
X102391000Y-67997000D03*
D18*
X102391000Y-65457000D03*
X102391000Y-62917000D03*
X102391000Y-60377000D03*
X102391000Y-57837000D03*
X102391000Y-55297000D03*
%TD*%
D19*
%TO.C,R1*%
X87884000Y-84836000D03*
D20*
X98044000Y-84836000D03*
%TD*%
D14*
%TO.C,L298N1*%
X103124000Y-89916000D03*
X103124000Y-87376000D03*
X103124000Y-84836000D03*
D13*
X103124000Y-82296000D03*
%TD*%
%TO.C,HCSR04-3*%
X78994000Y-68326000D03*
D14*
X78994000Y-70866000D03*
X78994000Y-73406000D03*
X78994000Y-75946000D03*
%TD*%
D13*
%TO.C,HCSR04-2*%
X75184000Y-68336000D03*
D14*
X75184000Y-70876000D03*
X75184000Y-73416000D03*
X75184000Y-75956000D03*
%TD*%
D13*
%TO.C,HCSR04-1*%
X71374000Y-68326000D03*
D14*
X71374000Y-70866000D03*
X71374000Y-73406000D03*
X71374000Y-75946000D03*
%TD*%
D10*
%TO.C,C1*%
X78994000Y-61722000D03*
D21*
X78994000Y-56722000D03*
%TD*%
D22*
%TO.C,B1*%
X94234000Y-89916000D03*
X94234000Y-79756000D03*
X91694000Y-79756000D03*
X86614000Y-79756000D03*
X89154000Y-79756000D03*
X96774000Y-79756000D03*
X99314000Y-79756000D03*
X91694000Y-89916000D03*
X86614000Y-89916000D03*
X89154000Y-89916000D03*
X96774000Y-89916000D03*
X99314000Y-89916000D03*
%TD*%
D13*
%TO.C,ADT1*%
X91186000Y-93726000D03*
D14*
X93726000Y-93726000D03*
X96266000Y-93726000D03*
X98806000Y-93726000D03*
%TD*%
M02*
