%TF.GenerationSoftware,KiCad,Pcbnew,8.0.7*%
%TF.CreationDate,2025-01-10T12:44:58+00:00*%
%TF.ProjectId,AstroDroid-v1,41737472-6f44-4726-9f69-642d76312e6b,rev?*%
%TF.SameCoordinates,Original*%
%TF.FileFunction,Legend,Bot*%
%TF.FilePolarity,Positive*%
%FSLAX46Y46*%
G04 Gerber Fmt 4.6, Leading zero omitted, Abs format (unit mm)*
G04 Created by KiCad (PCBNEW 8.0.7) date 2025-01-10 12:44:58*
%MOMM*%
%LPD*%
G01*
G04 APERTURE LIST*
%ADD10C,0.100000*%
G04 APERTURE END LIST*
D10*
X93472000Y-53594000D02*
X93485094Y-54693922D01*
X93489856Y-55093894D02*
X93490094Y-55113892D01*
X93494856Y-55513864D02*
X93507950Y-56613786D01*
X93512711Y-57013758D02*
X93512949Y-57033756D01*
X93517711Y-57433728D02*
X93530805Y-58533650D01*
X93535567Y-58933622D02*
X93535805Y-58953620D01*
X93540567Y-59353592D02*
X93553661Y-60453514D01*
X93558422Y-60853486D02*
X93558661Y-60873484D01*
X93563422Y-61273456D02*
X93576516Y-62373378D01*
X93581278Y-62773350D02*
X93581516Y-62793348D01*
X93586278Y-63193320D02*
X93599372Y-64293242D01*
X93604133Y-64693214D02*
X93604372Y-64713212D01*
X93609133Y-65113184D02*
X93622227Y-66213106D01*
X93626989Y-66613077D02*
X93627227Y-66633076D01*
X93631989Y-67033048D02*
X93645083Y-68132970D01*
X93649845Y-68532941D02*
X93650083Y-68552940D01*
X93654844Y-68952912D02*
X93667938Y-70052834D01*
X93672700Y-70452805D02*
X93672938Y-70472804D01*
X93677700Y-70872776D02*
X93690794Y-71972698D01*
X93695556Y-72372669D02*
X93695794Y-72392668D01*
X93700555Y-72792640D02*
X93713650Y-73892562D01*
X93718411Y-74292533D02*
X93718649Y-74312532D01*
X93723411Y-74712504D02*
X93736505Y-75812426D01*
X93741267Y-76212397D02*
X93741505Y-76232396D01*
X93746266Y-76632368D02*
X93759361Y-77732290D01*
X93764122Y-78132261D02*
X93764360Y-78152260D01*
X93769122Y-78552231D02*
X93782216Y-79652154D01*
X93786978Y-80052125D02*
X93787216Y-80072124D01*
X93791977Y-80472095D02*
X93805072Y-81572018D01*
X93809833Y-81971989D02*
X93810071Y-81991988D01*
X93814833Y-82391959D02*
X93827927Y-83491881D01*
X93832689Y-83891853D02*
X93832927Y-83911852D01*
X93837688Y-84311823D02*
X93850783Y-85411745D01*
X93855544Y-85811717D02*
X93855782Y-85831716D01*
X93860544Y-86231687D02*
X93873638Y-87331609D01*
X93878400Y-87731581D02*
X93878638Y-87751580D01*
X93883399Y-88151551D02*
X93896494Y-89251473D01*
X93901255Y-89651445D02*
X93901493Y-89671444D01*
X93906255Y-90071415D02*
X93919349Y-91171337D01*
X93924111Y-91571309D02*
X93924349Y-91591308D01*
X93929110Y-91991279D02*
X93942205Y-93091201D01*
X93946966Y-93491173D02*
X93947204Y-93511172D01*
X93951966Y-93911143D02*
X93965060Y-95011065D01*
X93969822Y-95411037D02*
X93970060Y-95431035D01*
X93974822Y-95831007D02*
X93980000Y-96266000D01*
X92423752Y-72868455D02*
X93090419Y-72868455D01*
X92042800Y-72630360D02*
X92757085Y-72392265D01*
X92757085Y-72392265D02*
X92757085Y-73011312D01*
X92090419Y-73297027D02*
X92090419Y-73916074D01*
X92090419Y-73916074D02*
X92471371Y-73582741D01*
X92471371Y-73582741D02*
X92471371Y-73725598D01*
X92471371Y-73725598D02*
X92518990Y-73820836D01*
X92518990Y-73820836D02*
X92566609Y-73868455D01*
X92566609Y-73868455D02*
X92661847Y-73916074D01*
X92661847Y-73916074D02*
X92899942Y-73916074D01*
X92899942Y-73916074D02*
X92995180Y-73868455D01*
X92995180Y-73868455D02*
X93042800Y-73820836D01*
X93042800Y-73820836D02*
X93090419Y-73725598D01*
X93090419Y-73725598D02*
X93090419Y-73439884D01*
X93090419Y-73439884D02*
X93042800Y-73344646D01*
X93042800Y-73344646D02*
X92995180Y-73297027D01*
X93090419Y-74344646D02*
X92423752Y-74344646D01*
X92518990Y-74344646D02*
X92471371Y-74392265D01*
X92471371Y-74392265D02*
X92423752Y-74487503D01*
X92423752Y-74487503D02*
X92423752Y-74630360D01*
X92423752Y-74630360D02*
X92471371Y-74725598D01*
X92471371Y-74725598D02*
X92566609Y-74773217D01*
X92566609Y-74773217D02*
X93090419Y-74773217D01*
X92566609Y-74773217D02*
X92471371Y-74820836D01*
X92471371Y-74820836D02*
X92423752Y-74916074D01*
X92423752Y-74916074D02*
X92423752Y-75058931D01*
X92423752Y-75058931D02*
X92471371Y-75154170D01*
X92471371Y-75154170D02*
X92566609Y-75201789D01*
X92566609Y-75201789D02*
X93090419Y-75201789D01*
X93090419Y-75677979D02*
X92423752Y-75677979D01*
X92518990Y-75677979D02*
X92471371Y-75725598D01*
X92471371Y-75725598D02*
X92423752Y-75820836D01*
X92423752Y-75820836D02*
X92423752Y-75963693D01*
X92423752Y-75963693D02*
X92471371Y-76058931D01*
X92471371Y-76058931D02*
X92566609Y-76106550D01*
X92566609Y-76106550D02*
X93090419Y-76106550D01*
X92566609Y-76106550D02*
X92471371Y-76154169D01*
X92471371Y-76154169D02*
X92423752Y-76249407D01*
X92423752Y-76249407D02*
X92423752Y-76392264D01*
X92423752Y-76392264D02*
X92471371Y-76487503D01*
X92471371Y-76487503D02*
X92566609Y-76535122D01*
X92566609Y-76535122D02*
X93090419Y-76535122D01*
X91469544Y-84549752D02*
X91469544Y-85216419D01*
X91707639Y-84168800D02*
X91945734Y-84883085D01*
X91945734Y-84883085D02*
X91326687Y-84883085D01*
X91040972Y-84216419D02*
X90421925Y-84216419D01*
X90421925Y-84216419D02*
X90755258Y-84597371D01*
X90755258Y-84597371D02*
X90612401Y-84597371D01*
X90612401Y-84597371D02*
X90517163Y-84644990D01*
X90517163Y-84644990D02*
X90469544Y-84692609D01*
X90469544Y-84692609D02*
X90421925Y-84787847D01*
X90421925Y-84787847D02*
X90421925Y-85025942D01*
X90421925Y-85025942D02*
X90469544Y-85121180D01*
X90469544Y-85121180D02*
X90517163Y-85168800D01*
X90517163Y-85168800D02*
X90612401Y-85216419D01*
X90612401Y-85216419D02*
X90898115Y-85216419D01*
X90898115Y-85216419D02*
X90993353Y-85168800D01*
X90993353Y-85168800D02*
X91040972Y-85121180D01*
X89993353Y-85216419D02*
X89993353Y-84549752D01*
X89993353Y-84644990D02*
X89945734Y-84597371D01*
X89945734Y-84597371D02*
X89850496Y-84549752D01*
X89850496Y-84549752D02*
X89707639Y-84549752D01*
X89707639Y-84549752D02*
X89612401Y-84597371D01*
X89612401Y-84597371D02*
X89564782Y-84692609D01*
X89564782Y-84692609D02*
X89564782Y-85216419D01*
X89564782Y-84692609D02*
X89517163Y-84597371D01*
X89517163Y-84597371D02*
X89421925Y-84549752D01*
X89421925Y-84549752D02*
X89279068Y-84549752D01*
X89279068Y-84549752D02*
X89183829Y-84597371D01*
X89183829Y-84597371D02*
X89136210Y-84692609D01*
X89136210Y-84692609D02*
X89136210Y-85216419D01*
X88660020Y-85216419D02*
X88660020Y-84549752D01*
X88660020Y-84644990D02*
X88612401Y-84597371D01*
X88612401Y-84597371D02*
X88517163Y-84549752D01*
X88517163Y-84549752D02*
X88374306Y-84549752D01*
X88374306Y-84549752D02*
X88279068Y-84597371D01*
X88279068Y-84597371D02*
X88231449Y-84692609D01*
X88231449Y-84692609D02*
X88231449Y-85216419D01*
X88231449Y-84692609D02*
X88183830Y-84597371D01*
X88183830Y-84597371D02*
X88088592Y-84549752D01*
X88088592Y-84549752D02*
X87945735Y-84549752D01*
X87945735Y-84549752D02*
X87850496Y-84597371D01*
X87850496Y-84597371D02*
X87802877Y-84692609D01*
X87802877Y-84692609D02*
X87802877Y-85216419D01*
X69088000Y-86106000D02*
X70187981Y-86099491D01*
X70587974Y-86097124D02*
X70607973Y-86097006D01*
X71007966Y-86094639D02*
X72107947Y-86088130D01*
X72507940Y-86085764D02*
X72527940Y-86085645D01*
X72927933Y-86083279D02*
X74027914Y-86076770D01*
X74427907Y-86074403D02*
X74447906Y-86074285D01*
X74847899Y-86071918D02*
X75947880Y-86065409D01*
X76347873Y-86063042D02*
X76367873Y-86062924D01*
X76767866Y-86060557D02*
X77867846Y-86054048D01*
X78267839Y-86051681D02*
X78287839Y-86051563D01*
X78687832Y-86049196D02*
X79787813Y-86042687D01*
X80187806Y-86040321D02*
X80207805Y-86040202D01*
X80607798Y-86037836D02*
X81707779Y-86031327D01*
X82107772Y-86028960D02*
X82127772Y-86028842D01*
X82527765Y-86026475D02*
X83627745Y-86019966D01*
X84027738Y-86017599D02*
X84047738Y-86017481D01*
X84447731Y-86015114D02*
X85547712Y-86008605D01*
X85947705Y-86006238D02*
X85967704Y-86006120D01*
X86367697Y-86003753D02*
X87467678Y-85997245D01*
X87867671Y-85994878D02*
X87887671Y-85994759D01*
X88287664Y-85992393D02*
X89387645Y-85985884D01*
X89787638Y-85983517D02*
X89807637Y-85983399D01*
X90207630Y-85981032D02*
X91307611Y-85974523D01*
X91707604Y-85972156D02*
X91727604Y-85972038D01*
X92127597Y-85969671D02*
X93227577Y-85963162D01*
X93627570Y-85960795D02*
X93647570Y-85960677D01*
X94047563Y-85958310D02*
X95147544Y-85951802D01*
X95547537Y-85949435D02*
X95567536Y-85949316D01*
X95967529Y-85946950D02*
X97067510Y-85940441D01*
X97467503Y-85938074D02*
X97487503Y-85937956D01*
X97887496Y-85935589D02*
X98987477Y-85929080D01*
X99387470Y-85926713D02*
X99407469Y-85926595D01*
X99807462Y-85924228D02*
X100907443Y-85917719D01*
X101307436Y-85915352D02*
X101327436Y-85915234D01*
X101727429Y-85912867D02*
X102827409Y-85906359D01*
X103227402Y-85903992D02*
X103247402Y-85903873D01*
X103647395Y-85901507D02*
X104747376Y-85894998D01*
X105147369Y-85892631D02*
X105167368Y-85892513D01*
X105567361Y-85890146D02*
X106667342Y-85883637D01*
X107067335Y-85881270D02*
X107087335Y-85881152D01*
X107487328Y-85878785D02*
X108587309Y-85872276D01*
X108987302Y-85869909D02*
X109007301Y-85869791D01*
X109407294Y-85867424D02*
X110507275Y-85860916D01*
X110907268Y-85858549D02*
X110927268Y-85858430D01*
X111327261Y-85856064D02*
X112014000Y-85852001D01*
X107330419Y-67010646D02*
X107330419Y-67629693D01*
X107330419Y-67629693D02*
X107711371Y-67296360D01*
X107711371Y-67296360D02*
X107711371Y-67439217D01*
X107711371Y-67439217D02*
X107758990Y-67534455D01*
X107758990Y-67534455D02*
X107806609Y-67582074D01*
X107806609Y-67582074D02*
X107901847Y-67629693D01*
X107901847Y-67629693D02*
X108139942Y-67629693D01*
X108139942Y-67629693D02*
X108235180Y-67582074D01*
X108235180Y-67582074D02*
X108282800Y-67534455D01*
X108282800Y-67534455D02*
X108330419Y-67439217D01*
X108330419Y-67439217D02*
X108330419Y-67153503D01*
X108330419Y-67153503D02*
X108282800Y-67058265D01*
X108282800Y-67058265D02*
X108235180Y-67010646D01*
X107330419Y-67963027D02*
X107330419Y-68629693D01*
X107330419Y-68629693D02*
X108330419Y-68201122D01*
X108330419Y-69010646D02*
X107663752Y-69010646D01*
X107758990Y-69010646D02*
X107711371Y-69058265D01*
X107711371Y-69058265D02*
X107663752Y-69153503D01*
X107663752Y-69153503D02*
X107663752Y-69296360D01*
X107663752Y-69296360D02*
X107711371Y-69391598D01*
X107711371Y-69391598D02*
X107806609Y-69439217D01*
X107806609Y-69439217D02*
X108330419Y-69439217D01*
X107806609Y-69439217D02*
X107711371Y-69486836D01*
X107711371Y-69486836D02*
X107663752Y-69582074D01*
X107663752Y-69582074D02*
X107663752Y-69724931D01*
X107663752Y-69724931D02*
X107711371Y-69820170D01*
X107711371Y-69820170D02*
X107806609Y-69867789D01*
X107806609Y-69867789D02*
X108330419Y-69867789D01*
X108330419Y-70343979D02*
X107663752Y-70343979D01*
X107758990Y-70343979D02*
X107711371Y-70391598D01*
X107711371Y-70391598D02*
X107663752Y-70486836D01*
X107663752Y-70486836D02*
X107663752Y-70629693D01*
X107663752Y-70629693D02*
X107711371Y-70724931D01*
X107711371Y-70724931D02*
X107806609Y-70772550D01*
X107806609Y-70772550D02*
X108330419Y-70772550D01*
X107806609Y-70772550D02*
X107711371Y-70820169D01*
X107711371Y-70820169D02*
X107663752Y-70915407D01*
X107663752Y-70915407D02*
X107663752Y-71058264D01*
X107663752Y-71058264D02*
X107711371Y-71153503D01*
X107711371Y-71153503D02*
X107806609Y-71201122D01*
X107806609Y-71201122D02*
X108330419Y-71201122D01*
X109220000Y-91440000D02*
X109211667Y-90340032D01*
X109208637Y-89940043D02*
X109208485Y-89920044D01*
X109205455Y-89520055D02*
X109197122Y-88420087D01*
X109194092Y-88020098D02*
X109193940Y-88000099D01*
X109190910Y-87600110D02*
X109182577Y-86500142D01*
X109179547Y-86100153D02*
X109179395Y-86080154D01*
X109176365Y-85680165D02*
X109168032Y-84580197D01*
X109165002Y-84180208D02*
X109164850Y-84160209D01*
X109161820Y-83760220D02*
X109153487Y-82660252D01*
X109150457Y-82260263D02*
X109150305Y-82240264D01*
X109147275Y-81840275D02*
X109138942Y-80740307D01*
X109135912Y-80340319D02*
X109135760Y-80320319D01*
X109132730Y-79920331D02*
X109124397Y-78820362D01*
X109121366Y-78420374D02*
X109121215Y-78400374D01*
X109118185Y-78000386D02*
X109109852Y-76900417D01*
X109106821Y-76500429D02*
X109106670Y-76480429D01*
X109103640Y-76080441D02*
X109095307Y-74980472D01*
X109092276Y-74580484D02*
X109092125Y-74560484D01*
X109089095Y-74160496D02*
X109080762Y-73060527D01*
X109077731Y-72660539D02*
X109077580Y-72640539D01*
X109074550Y-72240551D02*
X109066217Y-71140583D01*
X109063186Y-70740594D02*
X109063035Y-70720595D01*
X109060005Y-70320606D02*
X109051671Y-69220638D01*
X109048641Y-68820649D02*
X109048490Y-68800650D01*
X109045460Y-68400661D02*
X109037126Y-67300693D01*
X109034096Y-66900704D02*
X109033945Y-66880705D01*
X109030915Y-66480716D02*
X109022581Y-65380748D01*
X109019551Y-64980759D02*
X109019400Y-64960760D01*
X109016369Y-64560771D02*
X109008036Y-63460803D01*
X109005006Y-63060814D02*
X109004855Y-63040815D01*
X109001824Y-62640826D02*
X108993491Y-61540858D01*
X108990461Y-61140869D02*
X108990310Y-61120870D01*
X108987279Y-60720882D02*
X108978946Y-59620913D01*
X108975916Y-59220925D02*
X108975765Y-59200925D01*
X108972734Y-58800937D02*
X108966000Y-57912000D01*
X74930000Y-93472000D02*
X76030000Y-93472000D01*
X76430000Y-93472000D02*
X76450000Y-93472000D01*
X76850000Y-93472000D02*
X77950000Y-93472000D01*
X78350000Y-93472000D02*
X78370000Y-93472000D01*
X78770000Y-93472000D02*
X79870000Y-93472000D01*
X80270000Y-93472000D02*
X80290000Y-93472000D01*
X80690000Y-93472000D02*
X81790000Y-93472000D01*
X82190000Y-93472000D02*
X82210000Y-93472000D01*
X82610000Y-93472000D02*
X83710000Y-93472000D01*
X84110000Y-93472000D02*
X84130000Y-93472000D01*
X84530000Y-93472000D02*
X85630000Y-93472000D01*
X86030000Y-93472000D02*
X86050000Y-93472000D01*
X86450000Y-93472000D02*
X87550000Y-93472000D01*
X87950000Y-93472000D02*
X87970000Y-93472000D01*
X88370000Y-93472000D02*
X89470000Y-93472000D01*
X89870000Y-93472000D02*
X89890000Y-93472000D01*
X90290000Y-93472000D02*
X91390000Y-93472000D01*
X91790000Y-93472000D02*
X91810000Y-93472000D01*
X92210000Y-93472000D02*
X93310000Y-93472000D01*
X93710000Y-93472000D02*
X93730000Y-93472000D01*
X94130000Y-93472000D02*
X95230000Y-93472000D01*
X95630000Y-93472000D02*
X95650000Y-93472000D01*
X96050000Y-93472000D02*
X97150000Y-93472000D01*
X97550000Y-93472000D02*
X97570000Y-93472000D01*
X97970000Y-93472000D02*
X99070000Y-93472000D01*
X99470000Y-93472000D02*
X99490000Y-93472000D01*
X99890000Y-93472000D02*
X100990000Y-93472000D01*
X101390000Y-93472000D02*
X101410000Y-93472000D01*
X101810000Y-93472000D02*
X102910000Y-93472000D01*
X103310000Y-93472000D02*
X103330000Y-93472000D01*
X103730000Y-93472000D02*
X104830000Y-93472000D01*
X105230000Y-93472000D02*
X105250000Y-93472000D01*
X105650000Y-93472000D02*
X106680000Y-93472000D01*
X91231353Y-92090419D02*
X90612306Y-92090419D01*
X90612306Y-92090419D02*
X90945639Y-92471371D01*
X90945639Y-92471371D02*
X90802782Y-92471371D01*
X90802782Y-92471371D02*
X90707544Y-92518990D01*
X90707544Y-92518990D02*
X90659925Y-92566609D01*
X90659925Y-92566609D02*
X90612306Y-92661847D01*
X90612306Y-92661847D02*
X90612306Y-92899942D01*
X90612306Y-92899942D02*
X90659925Y-92995180D01*
X90659925Y-92995180D02*
X90707544Y-93042800D01*
X90707544Y-93042800D02*
X90802782Y-93090419D01*
X90802782Y-93090419D02*
X91088496Y-93090419D01*
X91088496Y-93090419D02*
X91183734Y-93042800D01*
X91183734Y-93042800D02*
X91231353Y-92995180D01*
X90278972Y-92090419D02*
X89612306Y-92090419D01*
X89612306Y-92090419D02*
X90040877Y-93090419D01*
X89231353Y-93090419D02*
X89231353Y-92423752D01*
X89231353Y-92518990D02*
X89183734Y-92471371D01*
X89183734Y-92471371D02*
X89088496Y-92423752D01*
X89088496Y-92423752D02*
X88945639Y-92423752D01*
X88945639Y-92423752D02*
X88850401Y-92471371D01*
X88850401Y-92471371D02*
X88802782Y-92566609D01*
X88802782Y-92566609D02*
X88802782Y-93090419D01*
X88802782Y-92566609D02*
X88755163Y-92471371D01*
X88755163Y-92471371D02*
X88659925Y-92423752D01*
X88659925Y-92423752D02*
X88517068Y-92423752D01*
X88517068Y-92423752D02*
X88421829Y-92471371D01*
X88421829Y-92471371D02*
X88374210Y-92566609D01*
X88374210Y-92566609D02*
X88374210Y-93090419D01*
X87898020Y-93090419D02*
X87898020Y-92423752D01*
X87898020Y-92518990D02*
X87850401Y-92471371D01*
X87850401Y-92471371D02*
X87755163Y-92423752D01*
X87755163Y-92423752D02*
X87612306Y-92423752D01*
X87612306Y-92423752D02*
X87517068Y-92471371D01*
X87517068Y-92471371D02*
X87469449Y-92566609D01*
X87469449Y-92566609D02*
X87469449Y-93090419D01*
X87469449Y-92566609D02*
X87421830Y-92471371D01*
X87421830Y-92471371D02*
X87326592Y-92423752D01*
X87326592Y-92423752D02*
X87183735Y-92423752D01*
X87183735Y-92423752D02*
X87088496Y-92471371D01*
X87088496Y-92471371D02*
X87040877Y-92566609D01*
X87040877Y-92566609D02*
X87040877Y-93090419D01*
M02*
